<svg width="34" height="151" viewBox="0 0 34 151" fill="none" xmlns="http://www.w3.org/2000/svg">
<g filter="url(#filter0_dd_1_305)">
<mask id="path-1-inside-1_1_305" fill="white">
<path d="M14 0.72998H20V150.73H14V0.72998Z"/>
</mask>
<path d="M14 0.72998H20V150.73H14V0.72998Z" fill="white" fill-opacity="0.4" shape-rendering="crispEdges"/>
<path d="M19 0.72998V150.73H21V0.72998H19ZM15 150.73V0.72998H13V150.73H15Z" fill="black" fill-opacity="0.2" mask="url(#path-1-inside-1_1_305)"/>
<g filter="url(#filter1_dd_1_305)">
<rect x="3" y="26.73" width="28" height="15" rx="3" fill="white"/>
<g clip-path="url(#clip0_1_305)">
<path fill-rule="evenodd" clip-rule="evenodd" d="M12 32.73H13V33.73H12V32.73ZM15 32.73H16V33.73H15V32.73ZM18 32.73H19V33.73H18V32.73ZM21 32.73H22V33.73H21V32.73ZM12 35.73H13V36.73H12V35.73ZM15 35.73H16V36.73H15V35.73ZM18 35.73H19V36.73H18V35.73ZM21 35.73H22V36.73H21V35.73Z" fill="#666666"/>
<path fill-rule="evenodd" clip-rule="evenodd" d="M12 33.73H13V34.73H12V33.73ZM15 33.73H16V34.73H15V33.73ZM18 33.73H19V34.73H18V33.73ZM21 33.73H22V34.73H21V33.73ZM12 36.73H13V37.73H12V36.73ZM15 36.73H16V37.73H15V36.73ZM18 36.73H19V37.73H18V36.73ZM21 36.73H22V37.73H21V36.73Z" fill="white" fill-opacity="0.75"/>
</g>
</g>
</g>
<defs>
<filter id="filter0_dd_1_305" x="2" y="0.72998" width="30" height="150" filterUnits="userSpaceOnUse" color-interpolation-filters="sRGB">
<feFlood flood-opacity="0" result="BackgroundImageFix"/>
<feColorMatrix in="SourceAlpha" type="matrix" values="0 0 0 0 0 0 0 0 0 0 0 0 0 0 0 0 0 0 127 0" result="hardAlpha"/>
<feOffset dx="-1"/>
<feComposite in2="hardAlpha" operator="out"/>
<feColorMatrix type="matrix" values="0 0 0 0 0 0 0 0 0 0 0 0 0 0 0 0 0 0 0.15 0"/>
<feBlend mode="normal" in2="BackgroundImageFix" result="effect1_dropShadow_1_305"/>
<feColorMatrix in="SourceAlpha" type="matrix" values="0 0 0 0 0 0 0 0 0 0 0 0 0 0 0 0 0 0 127 0" result="hardAlpha"/>
<feOffset dx="1"/>
<feComposite in2="hardAlpha" operator="out"/>
<feColorMatrix type="matrix" values="0 0 0 0 0 0 0 0 0 0 0 0 0 0 0 0 0 0 0.15 0"/>
<feBlend mode="normal" in2="effect1_dropShadow_1_305" result="effect2_dropShadow_1_305"/>
<feBlend mode="normal" in="SourceGraphic" in2="effect2_dropShadow_1_305" result="shape"/>
</filter>
<filter id="filter1_dd_1_305" x="0" y="24.73" width="34" height="21" filterUnits="userSpaceOnUse" color-interpolation-filters="sRGB">
<feFlood flood-opacity="0" result="BackgroundImageFix"/>
<feColorMatrix in="SourceAlpha" type="matrix" values="0 0 0 0 0 0 0 0 0 0 0 0 0 0 0 0 0 0 127 0" result="hardAlpha"/>
<feMorphology radius="3" operator="erode" in="SourceAlpha" result="effect1_dropShadow_1_305"/>
<feOffset dy="2"/>
<feGaussianBlur stdDeviation="2.5"/>
<feComposite in2="hardAlpha" operator="out"/>
<feColorMatrix type="matrix" values="0 0 0 0 0 0 0 0 0 0 0 0 0 0 0 0 0 0 0.15 0"/>
<feBlend mode="normal" in2="BackgroundImageFix" result="effect1_dropShadow_1_305"/>
<feColorMatrix in="SourceAlpha" type="matrix" values="0 0 0 0 0 0 0 0 0 0 0 0 0 0 0 0 0 0 127 0" result="hardAlpha"/>
<feMorphology radius="1" operator="dilate" in="SourceAlpha" result="effect2_dropShadow_1_305"/>
<feOffset dy="1"/>
<feGaussianBlur stdDeviation="1"/>
<feComposite in2="hardAlpha" operator="out"/>
<feColorMatrix type="matrix" values="0 0 0 0 0 0 0 0 0 0 0 0 0 0 0 0 0 0 0.15 0"/>
<feBlend mode="normal" in2="effect1_dropShadow_1_305" result="effect2_dropShadow_1_305"/>
<feBlend mode="normal" in="SourceGraphic" in2="effect2_dropShadow_1_305" result="shape"/>
</filter>
<clipPath id="clip0_1_305">
<rect width="10" height="5" fill="white" transform="translate(12 32.73)"/>
</clipPath>
</defs>
</svg>
