<svg width="14" height="19" viewBox="0 0 14 19" fill="none" xmlns="http://www.w3.org/2000/svg">
<g clip-path="url(#clip0_1_317)">
<g clip-path="url(#clip1_1_317)">
<path d="M6.99999 0.72998C5.61545 0.729881 4.26197 1.14037 3.11073 1.90953C1.9595 2.6787 1.06221 3.77198 0.532356 5.05113C0.00250083 6.33027 -0.136123 7.73782 0.134015 9.09575C0.404153 10.4537 1.07092 11.701 2.04999 12.68C3.31999 13.95 6.29999 15.78 6.46999 17.71C6.49999 17.99 6.70999 18.23 6.99999 18.23C7.28999 18.23 7.49999 17.99 7.52999 17.71C7.69999 15.78 10.68 13.95 11.95 12.68C12.9291 11.701 13.5958 10.4537 13.866 9.09575C14.1361 7.73782 13.9975 6.33027 13.4676 5.05113C12.9378 3.77198 12.0405 2.6787 10.8892 1.90953C9.73801 1.14037 8.38453 0.729881 6.99999 0.72998Z" fill="#FF4433"/>
<path d="M6.99999 10.18C7.32173 10.18 7.64031 10.1167 7.93756 9.99353C8.23481 9.87041 8.5049 9.68994 8.7324 9.46244C8.9599 9.23494 9.14037 8.96485 9.26349 8.6676C9.38662 8.37036 9.44999 8.05177 9.44999 7.73003C9.44999 7.40829 9.38662 7.0897 9.26349 6.79245C9.14037 6.49521 8.9599 6.22512 8.7324 5.99762C8.5049 5.77011 8.23481 5.58965 7.93756 5.46652C7.64031 5.3434 7.32173 5.28003 6.99999 5.28003C6.35021 5.28003 5.72704 5.53815 5.26758 5.99762C4.80811 6.45708 4.54999 7.08025 4.54999 7.73003C4.54999 8.37981 4.80811 9.00298 5.26758 9.46244C5.72704 9.9219 6.35021 10.18 6.99999 10.18Z" fill="white"/>
</g>
</g>
<defs>
<clipPath id="clip0_1_317">
<rect width="14" height="18" fill="white" transform="translate(0 0.72998)"/>
</clipPath>
<clipPath id="clip1_1_317">
<rect width="14" height="18" fill="white" transform="translate(0 0.72998)"/>
</clipPath>
</defs>
</svg>
